<svg width="500" height="500" viewBox="0 0 500 500" fill="none" xmlns="http://www.w3.org/2000/svg">
<path d="M0 250C0 111.929 111.929 0 250 0V0C388.071 0 500 111.929 500 250V250C500 388.071 388.071 500 250 500V500C111.929 500 0 388.071 0 250V250Z" fill="#007FFF"/>
<path d="M107.92 348V163.68H184.08C185.872 163.68 188.176 163.765 190.992 163.936C193.808 164.021 196.411 164.277 198.8 164.704C209.467 166.325 218.256 169.867 225.168 175.328C232.165 180.789 237.328 187.701 240.656 196.064C244.069 204.341 245.776 213.557 245.776 223.712C245.776 233.781 244.069 242.997 240.656 251.36C237.243 259.637 232.037 266.507 225.04 271.968C218.128 277.429 209.381 280.971 198.8 282.592C196.411 282.933 193.765 283.189 190.864 283.36C188.048 283.531 185.787 283.616 184.08 283.616H138.768V348H107.92ZM138.768 254.816H182.8C184.507 254.816 186.427 254.731 188.56 254.56C190.693 254.389 192.656 254.048 194.448 253.536C199.568 252.256 203.579 249.995 206.48 246.752C209.467 243.509 211.557 239.84 212.752 235.744C214.032 231.648 214.672 227.637 214.672 223.712C214.672 219.787 214.032 215.776 212.752 211.68C211.557 207.499 209.467 203.787 206.48 200.544C203.579 197.301 199.568 195.04 194.448 193.76C192.656 193.248 190.693 192.949 188.56 192.864C186.427 192.693 184.507 192.608 182.8 192.608H138.768V254.816ZM316.22 348V272.48L253.5 163.68H289.468L331.836 237.152L374.076 163.68H410.044L347.452 272.48V348H316.22Z" fill="white"/>
</svg>
